<svg xmlns="http://www.w3.org/2000/svg" xmlns:xlink="http://www.w3.org/1999/xlink" version="1.1" id="Camada_1" x="0px" y="0px" viewBox="0 0 109 36" style="enable-background:new 0 0 109 36;" xml:space="preserve">
<style type="text/css">
	.st0{fill:none;stroke:#FAFAFF;stroke-width:1.909;stroke-linecap:round;stroke-linejoin:round;}
	.st1{fill:#FAFAFF;}
</style>
<path class="st0" d="M5.9,28.1C-4.6,17.6,3.4,3.4,15.6,3.4c7.7,0,14.5,5.8,14.8,13.1c0.4,10.5-9,15.2-12,15s-2.6-4.3-2.6-7.1   M15.8,24.5c0,0,6.7,0.2,6.7-7.9c0-0.2-0.9-0.2-0.9-0.2 M15.8,24.5c0,0-6.7,0.4-6.7-7.7c0-0.2,0.9-0.2,0.9-0.2"/>
<path class="st0" d="M10.9,29.9c0,1.5-1.3,2.8-2.8,2.8c-1.5,0-2.8-1.2-2.8-2.8c0-1.5,1.3-2.8,2.8-2.8C9.6,27.1,10.9,28.3,10.9,29.9z  "/>
<path class="st1" d="M42.8,31.1c-0.8,0-1.6-0.1-2.3-0.4c-0.7-0.3-1.2-0.7-1.6-1.2c-0.4-0.5-0.6-1.1-0.6-1.8h2.3  c0,0.5,0.3,0.8,0.6,1.1c0.4,0.3,0.9,0.4,1.5,0.4c0.6,0,1.1-0.1,1.4-0.3c0.3-0.2,0.5-0.6,0.5-0.9c0-0.4-0.2-0.7-0.6-0.9  c-0.4-0.2-1-0.4-1.8-0.6c-0.8-0.2-1.5-0.4-2-0.6c-0.5-0.2-0.9-0.5-1.3-0.9c-0.4-0.4-0.5-1-0.5-1.7c0-0.6,0.2-1.1,0.5-1.5  c0.3-0.5,0.8-0.9,1.4-1.1c0.6-0.3,1.4-0.4,2.2-0.4c1.2,0,2.2,0.3,2.9,0.9c0.7,0.6,1.1,1.4,1.2,2.5h-2.2c0-0.5-0.2-0.9-0.6-1.1  c-0.3-0.3-0.8-0.4-1.4-0.4c-0.6,0-1,0.1-1.3,0.3c-0.3,0.2-0.5,0.5-0.5,0.9c0,0.3,0.1,0.5,0.3,0.7c0.2,0.2,0.5,0.3,0.8,0.5  c0.3,0.1,0.7,0.2,1.3,0.4c0.8,0.2,1.4,0.4,1.9,0.6c0.5,0.2,0.9,0.5,1.3,0.9c0.4,0.4,0.5,1,0.6,1.6c0,0.6-0.2,1.1-0.5,1.6  c-0.3,0.5-0.8,0.9-1.4,1.1C44.4,31,43.7,31.1,42.8,31.1z"/>
<path class="st1" d="M58.2,20.3v10.7H56v-1.3c-0.3,0.4-0.8,0.8-1.4,1c-0.6,0.2-1.1,0.4-1.8,0.4c-0.8,0-1.6-0.2-2.3-0.5  c-0.7-0.3-1.2-0.9-1.6-1.5c-0.4-0.7-0.6-1.5-0.6-2.5v-6.3h2.2v5.9c0,1,0.2,1.7,0.7,2.2c0.5,0.5,1.1,0.8,2,0.8c0.8,0,1.5-0.3,2-0.8  c0.5-0.5,0.7-1.3,0.7-2.2v-5.9H58.2z"/>
<path class="st1" d="M62.5,21.8c0.4-0.5,0.9-0.9,1.5-1.2c0.6-0.3,1.4-0.5,2.2-0.5c0.9,0,1.8,0.2,2.5,0.7c0.8,0.5,1.4,1.1,1.8,1.9  c0.4,0.8,0.7,1.8,0.7,2.8c0,1.1-0.2,2-0.7,2.9c-0.4,0.8-1,1.5-1.8,2c-0.8,0.5-1.6,0.7-2.5,0.7c-0.8,0-1.5-0.2-2.2-0.5  c-0.6-0.3-1.1-0.7-1.5-1.2V36h-2.2V20.3h2.2V21.8z M69,25.5c0-0.7-0.2-1.4-0.5-1.9c-0.3-0.5-0.7-0.9-1.2-1.2c-0.5-0.3-1-0.4-1.6-0.4  c-0.6,0-1.1,0.1-1.6,0.4c-0.5,0.3-0.9,0.7-1.2,1.2c-0.3,0.5-0.4,1.2-0.4,1.9c0,0.7,0.1,1.4,0.4,1.9c0.3,0.5,0.7,1,1.2,1.2  c0.5,0.3,1,0.4,1.6,0.4c0.6,0,1.1-0.1,1.6-0.4c0.5-0.3,0.9-0.7,1.2-1.3C68.9,26.9,69,26.3,69,25.5z"/>
<path class="st1" d="M74.9,21.8c0.4-0.5,0.9-0.9,1.5-1.2c0.6-0.3,1.4-0.5,2.2-0.5c0.9,0,1.8,0.2,2.5,0.7c0.8,0.5,1.4,1.1,1.8,1.9  c0.4,0.8,0.7,1.8,0.7,2.8c0,1.1-0.2,2-0.7,2.9c-0.4,0.8-1,1.5-1.8,2c-0.8,0.5-1.6,0.7-2.5,0.7c-0.8,0-1.5-0.2-2.2-0.5  c-0.6-0.3-1.1-0.7-1.5-1.2V36h-2.2V20.3h2.2V21.8z M81.4,25.5c0-0.7-0.2-1.4-0.5-1.9c-0.3-0.5-0.7-0.9-1.2-1.2  c-0.5-0.3-1-0.4-1.6-0.4c-0.6,0-1.1,0.1-1.6,0.4c-0.5,0.3-0.9,0.7-1.2,1.2c-0.3,0.5-0.4,1.2-0.4,1.9c0,0.7,0.1,1.4,0.4,1.9  c0.3,0.5,0.7,1,1.2,1.2c0.5,0.3,1,0.4,1.6,0.4c0.6,0,1.1-0.1,1.6-0.4c0.5-0.3,0.9-0.7,1.2-1.3C81.2,26.9,81.4,26.3,81.4,25.5z"/>
<path class="st1" d="M89.7,31.1c-1,0-1.9-0.2-2.7-0.7c-0.8-0.5-1.5-1.1-1.9-1.9c-0.5-0.8-0.7-1.8-0.7-2.9c0-1.1,0.2-2,0.7-2.9  c0.5-0.8,1.1-1.5,2-1.9c0.8-0.5,1.7-0.7,2.8-0.7c1,0,1.9,0.2,2.8,0.7c0.8,0.5,1.5,1.1,2,1.9c0.5,0.8,0.7,1.8,0.7,2.9s-0.2,2-0.7,2.9  c-0.5,0.8-1.2,1.5-2,2C91.6,30.9,90.7,31.1,89.7,31.1z M89.7,29.2c0.6,0,1.1-0.1,1.6-0.4c0.5-0.3,0.9-0.7,1.2-1.2  c0.3-0.5,0.5-1.2,0.5-2c0-0.8-0.1-1.4-0.4-2c-0.3-0.5-0.7-0.9-1.2-1.2c-0.5-0.3-1-0.4-1.6-0.4c-0.6,0-1.1,0.1-1.6,0.4  c-0.5,0.3-0.9,0.7-1.1,1.2c-0.3,0.5-0.4,1.2-0.4,2c0,1.1,0.3,2,0.9,2.7C88,28.9,88.8,29.2,89.7,29.2z"/>
<path class="st1" d="M98.8,21.8c0.3-0.5,0.7-1,1.3-1.3c0.5-0.3,1.2-0.5,1.9-0.5v2.3h-0.6c-0.9,0-1.5,0.2-2,0.7  c-0.4,0.4-0.7,1.2-0.7,2.3v5.6h-2.2V20.3h2.2V21.8z"/>
<path class="st1" d="M105.8,22.1V28c0,0.4,0.1,0.7,0.3,0.9c0.2,0.2,0.5,0.3,1,0.3h1.4v1.8h-1.7c-1,0-1.8-0.2-2.3-0.7  c-0.5-0.5-0.8-1.2-0.8-2.3v-5.9h-1.3v-1.8h1.3v-2.7h2.2v2.7h2.6v1.8H105.8z"/>
<path class="st1" d="M42.8,15.1c-0.8,0-1.6-0.1-2.3-0.4c-0.7-0.3-1.2-0.7-1.6-1.2c-0.4-0.5-0.6-1.1-0.6-1.8h2.3  c0,0.5,0.3,0.8,0.6,1.1c0.4,0.3,0.9,0.4,1.5,0.4c0.6,0,1.1-0.1,1.4-0.3c0.3-0.2,0.5-0.6,0.5-0.9c0-0.4-0.2-0.7-0.6-0.9  c-0.4-0.2-1-0.4-1.8-0.6c-0.8-0.2-1.5-0.4-2-0.6c-0.5-0.2-0.9-0.5-1.3-0.9c-0.4-0.4-0.5-1-0.5-1.7c0-0.6,0.2-1.1,0.5-1.5  c0.3-0.5,0.8-0.9,1.4-1.1c0.6-0.3,1.4-0.4,2.2-0.4c1.2,0,2.2,0.3,2.9,0.9c0.7,0.6,1.1,1.4,1.2,2.5h-2.2c0-0.5-0.2-0.9-0.6-1.1  c-0.3-0.3-0.8-0.4-1.4-0.4c-0.6,0-1,0.1-1.3,0.3c-0.3,0.2-0.5,0.5-0.5,0.9c0,0.3,0.1,0.5,0.3,0.7c0.2,0.2,0.5,0.3,0.8,0.5  c0.3,0.1,0.7,0.2,1.3,0.4c0.8,0.2,1.4,0.4,1.9,0.6c0.5,0.2,0.9,0.5,1.3,0.9c0.4,0.4,0.5,1,0.6,1.6c0,0.6-0.2,1.1-0.5,1.6  c-0.3,0.5-0.8,0.9-1.4,1.1C44.4,14.9,43.7,15.1,42.8,15.1z"/>
<path class="st1" d="M58.3,9.3c0,0.4,0,0.8-0.1,1.1h-8.2c0.1,0.9,0.4,1.5,0.9,2.1c0.6,0.5,1.3,0.8,2.1,0.8c1.2,0,2-0.5,2.5-1.5H58  c-0.3,1-0.9,1.8-1.8,2.4c-0.8,0.6-1.9,0.9-3.1,0.9c-1,0-1.9-0.2-2.7-0.7c-0.8-0.5-1.4-1.1-1.9-1.9c-0.5-0.8-0.7-1.8-0.7-2.9  c0-1.1,0.2-2.1,0.7-2.9c0.5-0.8,1.1-1.5,1.9-1.9c0.8-0.5,1.7-0.7,2.8-0.7c1,0,1.9,0.2,2.7,0.7c0.8,0.4,1.4,1.1,1.8,1.9  C58.1,7.4,58.3,8.3,58.3,9.3z M56,8.6c0-0.8-0.3-1.5-0.9-2c-0.6-0.5-1.3-0.7-2.1-0.7c-0.8,0-1.4,0.2-2,0.7c-0.5,0.5-0.9,1.1-1,2H56z  "/>
<path class="st1" d="M65.1,4.1c0.8,0,1.6,0.2,2.2,0.5c0.7,0.3,1.2,0.9,1.6,1.5c0.4,0.7,0.6,1.5,0.6,2.5v6.3h-2.2v-6  c0-1-0.2-1.7-0.7-2.2c-0.5-0.5-1.1-0.8-2-0.8c-0.8,0-1.5,0.3-2,0.8c-0.5,0.5-0.7,1.2-0.7,2.2v6h-2.2V4.2h2.2v1.2  c0.4-0.4,0.8-0.8,1.4-1C63.9,4.2,64.5,4.1,65.1,4.1z"/>
<path class="st1" d="M72.6,2.8c-0.4,0-0.7-0.1-1-0.4c-0.3-0.3-0.4-0.6-0.4-1s0.1-0.7,0.4-1c0.3-0.3,0.6-0.4,1-0.4  c0.4,0,0.7,0.1,1,0.4C73.9,0.7,74,1,74,1.4s-0.1,0.7-0.4,1C73.3,2.7,73,2.8,72.6,2.8z M73.7,4.2v10.7h-2.2V4.2H73.7z"/>
<path class="st1" d="M80.5,15.1c-1,0-1.9-0.2-2.7-0.7c-0.8-0.5-1.5-1.1-1.9-1.9c-0.5-0.8-0.7-1.8-0.7-2.9c0-1.1,0.2-2,0.7-2.9  s1.1-1.5,2-1.9c0.8-0.5,1.7-0.7,2.8-0.7c1,0,1.9,0.2,2.8,0.7c0.8,0.5,1.5,1.1,2,1.9C85.8,7.5,86,8.5,86,9.6c0,1.1-0.2,2-0.7,2.9  c-0.5,0.8-1.2,1.5-2,2C82.4,14.9,81.5,15.1,80.5,15.1z M80.5,13.2c0.6,0,1.1-0.1,1.6-0.4c0.5-0.3,0.9-0.7,1.2-1.2  c0.3-0.5,0.5-1.2,0.5-2c0-0.8-0.1-1.4-0.4-2c-0.3-0.5-0.7-0.9-1.2-1.2c-0.5-0.3-1-0.4-1.6-0.4c-0.6,0-1.1,0.1-1.6,0.4  c-0.5,0.3-0.9,0.7-1.1,1.2c-0.3,0.5-0.4,1.2-0.4,2c0,1.1,0.3,2,0.9,2.7C78.8,12.9,79.6,13.2,80.5,13.2z"/>
<path class="st1" d="M89.6,5.8c0.3-0.5,0.7-1,1.3-1.3c0.5-0.3,1.2-0.5,1.9-0.5v2.3h-0.6c-0.9,0-1.5,0.2-2,0.7  c-0.4,0.4-0.7,1.2-0.7,2.3v5.6h-2.2V4.2h2.2V5.8z"/>
</svg>